<svg preserveAspectRatio="none" overflow="visible" style="display: block;" width="200.105" height="200.986" viewBox="0 0 200.105 200.986" fill="none" xmlns="http://www.w3.org/2000/svg">
<g id="Group 6">
<path id="Vector" d="M50.598 108.991C49.0689 104.29 47.5338 97.7039 46.2741 92.8002C43.6689 82.6603 40.7083 71.7427 39.7558 61.3295C39.5398 58.9665 39.8373 56.0232 40.6014 53.7867C41.2438 51.7572 43.0592 49.0559 45.153 48.3304C57.952 43.8942 63.212 65.3658 66.2887 72.7193C69.2437 69.0752 72.6264 70.3271 75.7088 73.0586L76.0276 73.3398C76.5423 69.9015 77.2134 65.6818 80.1657 63.3888C81.4369 62.3964 83.0708 61.9929 84.6579 62.2791C89.4358 63.1311 91.0694 69.0942 92.2268 73.0306C94.7941 69.9589 97.8558 68.1562 101.677 70.7482C105.348 73.2398 102.967 79.7338 103.803 81.8404L104.35 81.8006C105.569 81.0025 107.7 77.252 108.546 75.8981C109.288 74.7107 109.829 73.0907 109.42 71.6591C108.942 71.4881 108.947 71.4528 108.55 71.1235C108.081 70.244 108.099 66.4335 108.871 65.5968C110.448 64.9909 118.312 65.2536 120.456 65.2657C121.518 65.2525 122.332 65.0743 123.223 65.8454C124.359 66.8275 124.15 70.2157 123.382 71.281L122.753 71.6158C121.878 72.5359 123.029 75.5234 123.626 76.6216C125.298 79.7019 127.347 82.6589 128.758 85.8869C128.962 86.3501 129.234 87.0205 129.537 87.3867C129.92 85.6449 130.369 83.124 131.045 81.5513C132.503 81.6267 134.048 81.9601 135.493 82.2296C136.213 81.2657 136.724 80.1628 136.995 78.9907C135.172 77.8907 137.049 72.4144 138.426 72.4595C140.329 72.5217 143.434 73.3311 145.471 73.7189C147.896 74.1335 148.363 74.9401 147.891 77.7091C147.7 78.8203 147.294 80.23 146.289 80.7808L146.085 80.9536C146.093 81.9519 146.346 83.2922 146.636 84.2563C149.448 84.7884 152.494 85.4161 155.311 85.8322C156.922 86.1925 160.755 86.869 161.953 87.7427C162.275 88.8312 158.287 107.542 157.756 109.457L158.421 109.362C159.1 110.227 158.531 112.662 158.433 113.757C156.161 139.064 153.34 164.548 151.294 189.853L151.453 190.377C154.388 191.184 168.268 191.578 168.302 195.08C166.641 198.075 146.69 199.479 143.093 199.731C121.53 201.033 99.9177 201.322 78.3275 200.597C71.8963 200.354 37.9994 199.221 35.3878 195.137C35.2759 191.94 49.9371 190.635 52.5011 190.509C52.2058 183.936 51.406 176.359 50.8702 169.703L47.3804 127.583C47.2061 125.504 45.7535 110.714 46.0511 109.451L46.4259 109.295C47.8141 109.161 49.2052 109.059 50.598 108.991Z" fill="#FBD19D"/>
<path id="Vector_2" d="M137.64 109.16C137.966 109.334 138.364 109.514 138.636 109.744C139.668 110.969 141.322 112.503 142.559 113.532C144.193 112.106 146 110.655 147.673 109.25C148.541 109.329 148.368 109.272 149.102 109.885L149.892 110.498L152.909 113.601C154.105 112.501 157.065 110.556 157.756 109.457L158.421 109.362C159.1 110.227 158.531 112.662 158.433 113.757C156.161 139.064 153.34 164.548 151.294 189.853C151.219 190.526 151.186 190.986 151.168 191.665C150.811 192.054 150.729 192.196 150.295 192.497C148.5 192.558 146.404 193.035 144.599 193.246C140.137 193.764 135.108 194.853 130.688 195.277L129.671 195.445L129.829 193.773C129.785 192.358 130.319 187.957 130.48 186.335L131.601 173.916L135.391 131.466L136.608 117.861C136.849 115.155 137.207 111.844 137.227 109.189L137.64 109.16Z" fill="#E1B079"/>
<path id="Vector_3" d="M157.756 109.457L158.421 109.362C159.1 110.227 158.531 112.662 158.433 113.757C156.161 139.064 153.34 164.548 151.294 189.853C151.219 190.526 151.186 190.986 151.168 191.665C151.007 190.063 148.746 188.309 147.7 186.932C146.137 184.87 144.581 182.73 142.949 180.732C143.099 175.096 144.177 166.444 144.694 160.625C145.777 147.805 146.942 134.994 148.192 122.189C148.425 119.998 148.603 117.802 148.723 115.601C148.782 114.488 148.858 110.763 149.102 109.885L149.892 110.498L152.909 113.601C154.105 112.501 157.065 110.556 157.756 109.457Z" fill="#E1B079"/>
<path id="Vector_4" d="M147.673 109.25C148.541 109.329 148.368 109.272 149.102 109.885C148.858 110.763 148.782 114.488 148.723 115.601C148.603 117.802 148.425 119.998 148.192 122.189C146.943 134.994 145.777 147.805 144.694 160.625C144.177 166.444 143.099 175.096 142.949 180.732C144.581 182.73 146.137 184.87 147.7 186.932C148.746 188.309 151.007 190.063 151.168 191.665C150.811 192.054 150.729 192.196 150.295 192.497C148.5 192.558 146.404 193.035 144.599 193.246C140.137 193.764 135.108 194.853 130.688 195.277L129.671 195.445L129.829 193.773C131.157 192.92 135.839 186.723 137.312 185.127C138.004 184.378 140.63 181.402 141.26 180.627C141.691 173.369 142.58 165.519 143.263 158.235L146.121 126.912C146.483 122.993 146.82 119.071 147.135 115.147C147.249 113.704 147.34 110.478 147.673 109.25Z" fill="#D5A168"/>
<path id="Vector_5" d="M141.999 182.03C142.839 183.448 149.088 191.193 150.295 192.497C148.5 192.558 146.404 193.035 144.599 193.246C140.137 193.764 135.108 194.853 130.689 195.277C131.175 194.21 134.682 190.464 135.611 189.411C137.76 186.968 139.889 184.507 141.999 182.03Z" fill="#E1B079"/>
<path id="Vector_6" d="M50.5982 108.991C49.0691 104.29 47.534 97.7039 46.2743 92.8002C43.6691 82.6603 40.7086 71.7427 39.756 61.3295C39.5401 58.9665 39.8375 56.0232 40.6016 53.7867C41.2441 51.7572 43.0594 49.0559 45.1532 48.3304C57.9523 43.8942 63.2122 65.3658 66.2889 72.7193C67.0151 75.8721 68.4544 79.4701 69.2931 82.6387C69.4702 83.3076 70.0433 84.98 70.1479 85.5745C71.1571 88.992 72.5321 93.4159 73.3173 96.8535C69.8872 99.4296 68.2803 102.8 68.9055 107.173C68.9823 107.711 69.2296 109.085 69.5468 109.479C69.1641 110.023 65.2742 113.028 64.4389 113.72C62.8449 112.456 60.1788 110.201 58.5863 109.123C56.7221 110.58 54.9019 112.092 53.1286 113.658L51.7047 112.681C51.5076 111.508 51.0928 110.07 50.5982 108.991Z" fill="#FA9C1D"/>
<path id="Vector_7" d="M60.9867 76.4527C66.1783 77.3304 55.2597 90.1077 52.2475 91.4391C50.9592 90.8542 50.6675 89.8288 51.1601 88.5347C52.8865 83.9992 56.7953 78.9196 60.9867 76.4527Z" fill="#FEB844"/>
<path id="Vector_8" d="M65.2683 91.5925C65.9281 91.7051 66.0557 91.7732 66.4995 92.2515C67.8121 95.6509 60.1156 104.493 57.3905 106.203C56.1536 105.957 55.6557 104.752 55.9825 103.642C57.2764 99.2446 61.4588 94.0015 65.2683 91.5925Z" fill="#FEB844"/>
<path id="Vector_9" d="M55.9653 62.0699C56.8134 62.0031 56.851 62.0141 57.3658 62.4506C58.7032 65.6155 51.085 74.0934 48.2522 75.6511C47.515 75.5431 47.3364 75.4139 46.8656 74.9126C45.4802 71.5264 53.0192 63.6636 55.9653 62.0699Z" fill="#FEB844"/>
<path id="Vector_10" d="M45.0956 53.2446C45.618 53.3943 45.6208 53.4438 46.0649 53.778C46.5382 54.5318 46.2353 57.4478 46.2454 58.5197C46.2636 60.4111 46.615 62.731 46.3828 64.5642C45.7514 64.8477 45.0591 64.7451 44.3529 64.7209C42.6352 63.7313 42.6227 60.402 42.6981 58.6018C42.7909 56.388 43.4202 54.7239 45.0956 53.2446Z" fill="#FEB844"/>
<path id="Vector_11" d="M136.995 78.9907C135.172 77.8906 137.048 72.4144 138.426 72.4595C140.329 72.5216 143.434 73.3311 145.47 73.7188C147.896 74.1335 148.363 74.9401 147.89 77.709C147.7 78.8203 147.294 80.2299 146.288 80.7808L146.085 80.9536C146.092 81.9519 146.345 83.2922 146.636 84.2563C149.448 84.7884 152.494 85.4161 155.311 85.8322C156.922 86.1925 160.755 86.869 161.953 87.7427C162.275 88.8312 158.287 107.542 157.756 109.457C157.065 110.556 154.105 112.501 152.909 113.601L149.892 110.498L149.102 109.885C148.368 109.272 148.541 109.329 147.673 109.25C146 110.655 144.193 112.106 142.559 113.532C141.322 112.503 139.668 110.969 138.636 109.744C138.364 109.514 137.966 109.334 137.64 109.16L137.227 109.189C136.617 109.238 136.418 109.436 135.879 109.563C134.122 110.907 131.446 112.403 129.534 113.643C128.687 112.988 127.693 112.253 126.896 111.558C127.889 107.239 130.029 101.578 127.283 97.5258C127.627 96.7514 129.209 88.8465 129.537 87.3867C129.92 85.6449 130.369 83.124 131.045 81.5513C132.502 81.6267 134.047 81.9601 135.493 82.2296C136.213 81.2657 136.724 80.1628 136.995 78.9907Z" fill="#FA9C1D"/>
<path id="Vector_12" d="M155.311 85.8322C156.922 86.1925 160.755 86.869 161.953 87.7428C162.275 88.8312 158.287 107.542 157.756 109.457C157.065 110.556 154.105 112.501 152.909 113.601L149.892 110.498C150.298 107.205 151.852 101.157 152.558 97.7091C153.201 94.5746 154.379 88.5862 155.311 85.8322Z" fill="#EE821A"/>
<path id="Vector_13" d="M136.995 78.9907C135.172 77.8906 137.049 72.4144 138.426 72.4595C140.329 72.5216 143.434 73.3311 145.471 73.7188C147.896 74.1335 148.363 74.9401 147.891 77.709C147.7 78.8203 147.294 80.2299 146.288 80.7808C145.64 80.4529 145.128 80.4083 144.41 80.2779C142.719 79.9671 138.485 79.0707 136.995 78.9907Z" fill="#629829"/>
<path id="Vector_14" d="M145.471 73.7188C147.896 74.1335 148.363 74.9401 147.891 77.709C147.7 78.8203 147.294 80.2299 146.289 80.7808C145.64 80.4529 145.129 80.4083 144.41 80.2779C144.688 79.1254 145.494 74.7776 145.471 73.7188Z" fill="#548A25"/>
<path id="Vector_15" d="M136.995 78.9907C138.485 79.0707 142.719 79.9671 144.41 80.2779C145.128 80.4083 145.64 80.4529 146.288 80.7808L146.085 80.9536C146.092 81.9519 146.346 83.2922 146.636 84.2563C143.621 83.9011 138.633 82.82 135.493 82.2296C136.213 81.2657 136.724 80.1628 136.995 78.9907Z" fill="#C5D4A8"/>
<path id="Vector_16" d="M135.942 109.23C135.005 107.961 132.991 107.568 132.775 105.218C132.667 104.047 132.276 102.316 134.009 102.314C135.482 103.01 136.111 104.637 136.708 106.081C137.236 106.532 136.878 107.364 137.136 107.366C137.719 107.372 137.373 107.175 137.897 107.566C137.512 108.34 137.284 108.351 137.64 109.16L137.227 109.189C136.617 109.238 136.418 109.436 135.88 109.563L135.942 109.23Z" fill="#FBD19D"/>
<path id="Vector_17" d="M136.708 106.081C137.236 106.532 136.877 107.364 137.136 107.366C137.719 107.372 137.373 107.175 137.897 107.566C137.512 108.34 137.284 108.352 137.64 109.16L137.227 109.189C136.617 109.238 136.418 109.436 135.879 109.563L135.942 109.23C136.218 109.027 136.352 108.877 136.598 108.637C136.938 107.833 136.774 106.983 136.708 106.081Z" fill="#FEB844"/>
<path id="Vector_18" d="M137.897 107.566C138.818 106.325 142.227 104.079 143.76 104.803C143.95 105.09 144.264 105.489 144.132 105.849C143.255 108.246 140.812 109.364 138.636 109.744C138.364 109.514 137.966 109.334 137.64 109.16C137.284 108.351 137.512 108.34 137.897 107.566Z" fill="#FBD19D"/>
<path id="Vector_19" d="M131.44 86.1394C132.027 86.038 133.311 86.0202 134.115 86.1797C139.789 87.3063 145.768 88.2522 151.365 89.5868C151.799 89.6896 151.925 90.3073 152.057 90.6885C149.245 90.9779 135.493 87.956 132.068 87.2208C131.613 87.1229 131.576 86.599 131.44 86.1394Z" fill="#FEB844"/>
<path id="Vector_20" d="M136.061 95.6572C139.053 97.7506 139.105 100.541 138.642 103.775L138.478 103.5C136.234 102.584 135.669 101.505 134.928 99.2979C135.179 97.85 135.324 96.9616 136.061 95.6572Z" fill="#FBD19D"/>
<path id="Vector_21" d="M144.827 98.4488L145.321 98.6377C145.98 99.5453 145.428 100.502 144.768 101.311C143.353 103.047 142.498 103.469 140.381 103.78C139.622 103.642 139.663 103.563 139.296 103.074C138.993 100.885 142.963 98.8091 144.827 98.4488Z" fill="#FBD19D"/>
<path id="Vector_22" d="M142.013 92.1462C144.579 92.6395 142.662 97.9518 140.477 99.2842C139.1 98.8093 138.914 97.463 139.221 96.1528C139.65 94.3303 140.429 93.1607 142.013 92.1462Z" fill="#FBD19D"/>
<path id="Vector_23" d="M76.0277 73.3398C76.5424 69.9015 77.2135 65.6818 80.1659 63.3888C81.437 62.3964 83.071 61.9929 84.6581 62.2791C89.4359 63.1311 91.0695 69.0942 92.227 73.0306C94.7942 69.9589 97.856 68.1562 101.677 70.7482C105.348 73.2398 102.967 79.7338 103.803 81.8404L104.273 82.0894C104.275 82.6079 103.033 84.4171 102.687 85.0413C101.313 87.5179 100.855 89.9372 100.75 92.7849C97.2009 96.5051 97.4484 97.9384 96.8347 102.699C96.5554 102.148 96.4312 101.479 96.1842 100.883C95.4972 99.227 94.775 98.3012 93.6247 96.975L91.9242 95.7889C90.7092 95.2279 90.3378 95.0579 89.0425 94.7414C88.2913 94.7967 87.4673 94.8186 86.7459 95.0041C85.954 95.1646 85.3827 95.317 84.569 95.3136C84.1094 95.3594 83.7763 95.348 83.3582 95.5154C83.3584 96.681 83.6378 98.1959 82.4795 98.7826L81.2939 98.7967L81.1043 97.2007C81.0319 96.6945 80.9375 96.2333 80.8404 95.7329L78.0511 95.765C76.255 95.6939 74.9243 96.0742 73.3172 96.8535C72.5321 93.4159 71.157 88.992 70.1479 85.5745C70.0433 84.98 69.4701 83.3076 69.293 82.6388C68.4544 79.4701 67.015 75.8721 66.2888 72.7193C69.2438 69.0752 72.6265 70.3271 75.7089 73.0586L76.0277 73.3398Z" fill="#77AB2B"/>
<path id="Vector_24" d="M92.2268 73.0306C94.794 69.9589 97.8558 68.1561 101.676 70.7481C105.348 73.2398 102.967 79.7338 103.802 81.8404L104.273 82.0893C104.275 82.6079 103.033 84.417 102.687 85.0413C101.313 87.5178 100.855 89.9371 100.75 92.7848C97.2007 96.5051 97.4482 97.9384 96.8345 102.699C96.5552 102.148 96.431 101.479 96.184 100.883C95.497 99.227 94.7748 98.3012 93.6244 96.975L91.924 95.7889C90.709 95.2279 90.3376 95.0579 89.0422 94.7414C88.2911 94.7966 87.4671 94.8185 86.7457 95.004C86.7167 94.1294 86.7977 93.3389 86.8642 92.4687L86.9038 92.3513C87.3013 90.8059 88.1961 90.5936 87.1693 88.8333C89.7939 86.2513 89.2855 82.7669 94.0904 81.554C94.2635 77.7885 93.2955 76.4354 92.2268 73.0306Z" fill="#629829"/>
<path id="Vector_25" d="M91.9243 95.7889C92.6088 93.1976 95.7807 78.3313 97.103 77.3013C97.2764 77.1664 97.443 77.2511 97.644 77.2783C97.9523 77.6502 97.8935 77.4261 97.8668 77.8448C97.6636 80.9335 96.066 84.8699 95.7983 87.7862C96.655 86.9838 98.8861 84.9299 100.012 84.9775C101.363 86.6614 96.3912 89.2628 95.2254 90.2118C94.5525 92.2185 94.0601 95.8181 93.6247 96.975L91.9243 95.7889Z" fill="#548A25"/>
<path id="Vector_26" d="M86.9038 92.3513C87.5512 92.8073 87.6169 93.4423 87.7624 94.1987C88.2783 94.7383 88.1482 94.5701 89.0422 94.7414C88.2911 94.7966 87.4671 94.8185 86.7457 95.0041C86.7167 94.1294 86.7977 93.3389 86.8642 92.4687L86.9038 92.3513Z" fill="#77AB2B"/>
<path id="Vector_27" d="M74.005 87.6617L73.9501 87.3883C73.5365 85.3915 71.1876 79.4594 71.9314 78.2291C72.2555 78.3018 72.5719 78.4242 72.7084 78.7728C74.2728 82.7656 76.0025 87.6952 77.354 91.6827C77.6265 93.0251 77.9407 94.4041 78.051 95.765C76.2548 95.6939 74.9242 96.0742 73.3171 96.8535C72.5319 93.4159 71.1569 88.992 70.1477 85.5745C71.7926 85.7698 72.7647 86.6038 74.005 87.6617Z" fill="url(#paint0_linear_0_4)"/>
<path id="Vector_28" d="M83.6979 83.181C83.6988 80.2328 83.0328 73.7098 83.3946 71.2705C83.8526 70.9096 83.5979 70.9745 84.1366 70.9631C85.0702 71.7075 85.5225 86.3412 86.2181 88.7532C85.2046 89.057 84.9845 89.1148 84.0963 89.6715C83.9502 88.2346 83.888 86.7642 83.8098 85.3199C82.2434 84.1722 78.6967 80.6225 78.9918 78.586C79.4806 78.2724 79.2112 78.3624 79.8472 78.3796C80.6206 79.124 82.658 82.0026 83.6979 83.181Z" fill="#629829"/>
<path id="Vector_29" d="M86.2183 88.7532L87.1696 88.8333C88.1964 90.5937 87.3016 90.8059 86.904 92.3513L86.8645 92.4687C86.798 93.3389 86.7169 94.1294 86.746 95.0041C85.954 95.1646 85.3827 95.317 84.569 95.3136C84.1094 95.3594 83.7763 95.348 83.3583 95.5153C83.3585 96.681 83.6379 98.1959 82.4795 98.7826L81.2939 98.7966L81.1043 97.2006C81.032 96.6945 80.9375 96.2333 80.8404 95.7329L80.9012 95.418C81.0505 93.77 80.4489 93.907 81.7487 92.7795C81.7398 92.7836 83.5317 90.2692 84.0966 89.6715C84.9848 89.1147 85.2048 89.057 86.2183 88.7532Z" fill="#548A25"/>
<path id="Vector_30" d="M84.5688 95.3136C84.7857 94.1289 85.9775 93.1765 86.8643 92.4687C86.7978 93.3389 86.7167 94.1294 86.7458 95.004C85.9538 95.1646 85.3825 95.317 84.5688 95.3136Z" fill="#629829"/>
<path id="Vector_31" d="M77.7617 91.6412C77.4941 91.0228 77.2628 90.6689 77.3339 90.0033C77.6555 89.5063 77.4354 89.6784 78.0492 89.5141C79.7781 89.8365 81.061 91.2252 81.7485 92.7795C80.4487 93.907 81.0503 93.77 80.901 95.418C79.604 94.8325 78.6708 92.9267 77.7617 91.6412Z" fill="#629829"/>
<path id="Vector_32" d="M151.168 191.665C151.186 190.986 151.219 190.526 151.294 189.853L151.453 190.377C154.388 191.184 168.268 191.578 168.302 195.08C166.641 198.075 146.69 199.479 143.093 199.731C121.53 201.033 99.9177 201.322 78.3275 200.597C71.8963 200.354 37.9994 199.221 35.3878 195.137C35.2759 191.94 49.9371 190.635 52.5011 190.509C52.8454 193.376 53.5814 194.999 56.8315 195.172C59.0036 195.286 61.1888 195.213 63.3642 195.201C67.1202 195.174 70.8762 195.178 74.6323 195.215L116.633 195.345L125.127 195.35C126.185 195.35 128.75 195.304 129.671 195.445L130.688 195.277C135.108 194.853 140.137 193.764 144.599 193.246C146.404 193.035 148.5 192.558 150.295 192.497C150.729 192.196 150.811 192.054 151.168 191.665Z" fill="#ECEEEB"/>
<path id="Vector_33" d="M109.42 71.6591C108.942 71.4881 108.947 71.4528 108.55 71.1235C108.081 70.244 108.099 66.4335 108.871 65.5968C110.448 64.9909 118.312 65.2536 120.456 65.2657C121.518 65.2525 122.332 65.0743 123.224 65.8454C124.359 66.8275 124.15 70.2157 123.382 71.281L122.753 71.6158C121.878 72.5359 123.029 75.5234 123.626 76.6216C125.298 79.7019 127.347 82.6589 128.759 85.8869C128.962 86.3501 129.234 87.0205 129.537 87.3867C129.209 88.8465 127.627 96.7514 127.283 97.5259C126.476 96.3469 126.223 96.1599 125.166 95.1743C123.525 94.3381 123.054 94.4413 121.231 94.4287C119.873 93.4453 118.246 92.9955 116.648 92.5855C116.368 93.5995 116.332 94.192 116.234 95.2219C114.588 94.5653 113.727 94.5329 112.013 94.47C110.038 94.8941 109.696 93.9972 108.509 92.5846C105.727 90.4178 103.485 91.0406 100.75 92.7849C100.855 89.9372 101.313 87.5179 102.687 85.0413C103.033 84.4171 104.275 82.6079 104.273 82.0894L103.803 81.8404L104.35 81.8006C105.569 81.0025 107.7 77.252 108.546 75.8981C109.288 74.7108 109.83 73.0907 109.42 71.6591Z" fill="#ECEEEB"/>
<path id="Vector_34" d="M109.42 71.6591C108.942 71.4881 108.947 71.4528 108.55 71.1235C108.081 70.244 108.099 66.4335 108.871 65.5968C110.448 64.9909 118.312 65.2536 120.456 65.2657C121.518 65.2525 122.332 65.0743 123.223 65.8454C124.358 66.8275 124.15 70.2157 123.382 71.281L122.753 71.6158C122.195 71.4995 121.035 71.5567 120.417 71.5658C116.801 71.5328 113.187 71.5449 109.571 71.6025L109.42 71.6591Z" fill="#3F9EE0"/>
<path id="Vector_35" d="M120.456 65.2657C121.518 65.2525 122.332 65.0743 123.223 65.8454C124.359 66.8275 124.15 70.2157 123.382 71.281L122.753 71.6159C122.195 71.4995 121.035 71.5567 120.417 71.5658C120.449 69.466 120.463 67.3658 120.456 65.2657Z" fill="#2F8FD3"/>
<path id="Vector_36" d="M120.417 71.5657C121.035 71.5567 122.195 71.4995 122.753 71.6158C121.878 72.5359 123.029 75.5233 123.626 76.6216C125.298 79.7019 127.347 82.6589 128.759 85.8869C128.962 86.35 129.234 87.0204 129.537 87.3867C129.209 88.8465 127.627 96.7514 127.283 97.5258C126.476 96.3468 126.223 96.1599 125.166 95.1742C125.353 94.7114 125.455 93.7197 125.476 93.1867C125.784 85.109 119.978 79.9018 119.629 71.7609C117.722 71.7322 111.04 71.9152 109.571 71.6025C113.187 71.5449 116.801 71.5328 120.417 71.5657Z" fill="#D1DEE3"/>
<path id="Vector_37" d="M112.795 91.7579C113.798 88.9267 114.511 87.2829 117.081 85.6718C119.659 84.0558 121.823 86.7911 120.704 87.8218C118.72 89.6474 117.916 89.4408 116.648 92.5854C116.368 93.5994 116.332 94.192 116.234 95.2218C114.588 94.5653 113.727 94.5329 112.012 94.47C112.244 93.5579 112.506 92.6535 112.795 91.7579Z" fill="#629829"/>
<path id="Vector_38" d="M108.509 92.5846C110.261 91.8124 110.931 91.6613 112.795 91.7579C112.506 92.6535 112.244 93.5579 112.012 94.47C110.038 94.8941 109.696 93.9972 108.509 92.5846Z" fill="#FEB844"/>
<path id="Vector_39" d="M110.656 78.4473C111.193 78.4678 111.428 78.4302 111.9 78.6954C112.39 80.1002 110.86 83.9596 109.837 85.0657C109.259 85.6907 108.545 85.629 107.777 85.6326C107.643 85.6288 107.509 85.6231 107.378 85.6153C106.838 85.5829 106.36 85.66 106.094 85.3606C106.672 83.3239 109.172 80.0077 110.656 78.4473Z" fill="white"/>
<path id="Vector_40" d="M100.75 92.7849C103.486 91.0406 105.727 90.4178 108.509 92.5846C109.696 93.9972 110.038 94.8941 112.013 94.47C113.727 94.5329 114.588 94.5653 116.234 95.2218C116.332 94.192 116.368 93.5994 116.648 92.5854C118.246 92.9955 119.873 93.4453 121.231 94.4286C123.054 94.4413 123.525 94.3381 125.166 95.1742C126.223 96.1599 126.476 96.3468 127.283 97.5258C130.029 101.578 127.889 107.239 126.896 111.558L123.733 109.08C122.151 110.207 119.811 112.046 118.291 113.021C118.211 113.113 117.767 113.367 117.642 113.444C116.696 113.289 112.731 109.945 111.505 109.017C109.455 110.512 107.42 112.026 105.399 113.56C104.093 112.393 101.434 110.467 99.9749 109.398C98.7399 109.995 98.3603 110.266 97.2469 111.074C97.4198 110.26 96.9448 103.841 96.8347 102.699C97.4484 97.9384 97.2009 96.5051 100.75 92.7849Z" fill="#FEC114"/>
<path id="Vector_41" d="M116.234 95.2219C116.332 94.192 116.368 93.5995 116.648 92.5855C118.246 92.9955 119.873 93.4453 121.231 94.4287C123.054 94.4413 123.525 94.3381 125.166 95.1743C126.223 96.1599 126.476 96.3469 127.283 97.5259C130.029 101.578 127.889 107.239 126.896 111.558L123.733 109.08C122.151 110.208 119.811 112.046 118.291 113.021C116.894 109.74 125.681 101.184 116.234 95.2219Z" fill="#FEB844"/>
<path id="Vector_42" d="M89.0424 94.7414C90.3378 95.0579 90.7092 95.2279 91.9242 95.7889L93.6246 96.975C94.7749 98.3012 95.4972 99.227 96.1842 100.883C96.4312 101.479 96.5554 102.148 96.8346 102.699C96.9448 103.841 97.4197 110.26 97.2468 111.074L95.2775 112.948L92.6035 110.323C92.0856 110.576 91.5013 110.915 90.9897 111.195C89.9648 112.038 88.8594 112.822 87.7852 113.606C85.8916 112.124 84.0088 110.629 82.1371 109.12C80.1074 110.542 78.1466 112.153 76.2075 113.701C74.4819 112.448 72.9118 110.958 71.1418 109.776C70.3652 109.258 70.3208 109.315 69.5467 109.479C69.2295 109.085 68.9822 107.711 68.9054 107.173C68.2802 102.8 69.8871 99.4296 73.3172 96.8535C74.9242 96.0742 76.2549 95.6939 78.051 95.765L80.8403 95.7329C80.9374 96.2333 81.0319 96.6945 81.1042 97.2006L81.2939 98.7967L82.4794 98.7826C83.6378 98.1959 83.3584 96.681 83.3582 95.5153C83.7763 95.348 84.1093 95.3594 84.5689 95.3136C85.3826 95.317 85.9539 95.1646 86.7459 95.0041C87.4672 94.8186 88.2913 94.7966 89.0424 94.7414Z" fill="#EF502F"/>
<path id="Vector_43" d="M89.0425 94.7414C90.3379 95.0579 90.7092 95.2279 91.9242 95.7889L93.6247 96.975C94.775 98.3012 95.4973 99.227 96.1842 100.883C96.4312 101.479 96.5554 102.148 96.8347 102.699C96.9448 103.841 97.4197 110.26 97.2469 111.074L95.2775 112.948L92.6036 110.323C92.0857 110.576 91.5014 110.915 90.9897 111.195C90.3029 108.978 96.4179 101.137 86.8999 97.2177C85.081 96.3545 83.8685 97.7859 83.3583 95.5153C83.7763 95.348 84.1094 95.3594 84.569 95.3136C85.3827 95.317 85.954 95.1646 86.746 95.0041C87.4673 94.8186 88.2913 94.7966 89.0425 94.7414Z" fill="#E24E2D"/>
<path id="Vector_44" d="M82.4794 98.7826C83.6378 98.1959 83.3583 96.681 83.3582 95.5153C83.8684 97.7859 85.0809 96.3545 86.8998 97.2177C85.194 98.2895 84.5523 98.6888 82.4794 98.7826Z" fill="#BD4928"/>
<path id="Vector_45" d="M81.1041 97.2006L81.2938 98.7966C80.2849 98.8421 78.9601 98.7257 78.5763 97.6404L78.8235 97.3011C79.5195 96.9985 80.3138 97.1488 81.1041 97.2006Z" fill="#BD4928"/>
<path id="Vector_46" d="M74.9563 99.2896C79.4382 99.0392 77.1103 102.637 75.0978 104.328C73.6625 104.279 73.4692 104.044 72.3962 103.041C72.8802 101.03 73.1675 100.448 74.9563 99.2896Z" fill="#E24E2D"/>
<path id="Vector_47" d="M50.598 108.991C51.0925 110.07 51.5074 111.508 51.7045 112.681C49.9755 111.697 48.0171 110.476 46.4259 109.295C47.8141 109.161 49.2051 109.059 50.598 108.991Z" fill="#D5A168"/>
<path id="Vector_48" d="M4.95572 83.8732C6.1636 84.4438 6.04723 86.7225 7.10666 87.6146C7.94672 88.3221 10.0093 88.7683 10.3174 89.7992C9.99822 90.2282 9.5896 90.2896 9.05355 90.4602C6.55173 91.256 6.45051 93.0484 5.42547 95.1536C3.97078 94.6428 4.23702 92.7284 3.27185 91.6167C2.53943 90.7729 -0.00320467 90.4534 3.03231e-06 89.3398C0.520541 88.8683 1.05213 88.7658 1.73269 88.5365C3.77368 87.8482 4.08893 85.7144 4.95572 83.8732Z" fill="#EC9913"/>
<path id="Vector_49" d="M194.912 78.5324C196.003 79.2518 195.883 81.3444 196.933 82.2608C197.763 82.9848 199.779 83.3405 200.105 84.3707C199.62 85.0871 197.863 85.2655 197.111 86.1023C196.028 87.3088 196.097 88.529 195.108 89.9279C194.025 88.8626 194.135 87.5173 193.139 86.2939C192.26 85.216 190.651 85.2621 189.865 84.4415C189.953 83.3056 192.652 82.9007 193.299 82.0548C194.042 81.0857 194.19 79.7625 194.912 78.5324Z" fill="#EC9913"/>
<path id="Vector_50" d="M149.607 44.6742C150.735 45.1105 150.72 47.1924 151.606 48.123C152.469 49.0304 153.99 49.1878 154.921 50.0876C154.94 51.0793 153.162 50.9836 152.242 51.8035C151.105 52.8178 150.644 54.4354 150.017 55.8247C148.676 55.1835 148.894 53.1133 147.841 52.1629C147.048 51.4478 145.818 51.1707 144.777 50.5432C144.483 49.5978 146.426 49.3473 147.386 48.5657C148.76 47.4464 148.844 46.2447 149.607 44.6742Z" fill="#EC9913"/>
<path id="Vector_51" d="M165.583 0.00252342C166.354 0.0349568 166.419 0.00555529 167.017 0.438773C167.199 0.77968 167.384 0.984258 167.292 1.40055C166.909 3.09795 160.695 9.40697 159.665 10.2299C155.684 9.92929 159.602 6.27964 160.761 5.07087C162.329 3.43779 163.868 1.45597 165.583 0.00252342Z" fill="#EC9913"/>
<path id="Vector_52" d="M39.8707 0C40.6024 0.00908848 41.0996 0.15896 41.5656 0.773947C42.7474 2.33431 48.3725 7.47162 48.381 9.04571C48.1864 9.67157 47.9264 9.81182 47.4316 10.2434C46.7047 10.2162 46.2527 10.041 45.7753 9.44917C44.6678 8.07538 38.9725 2.79711 38.9447 1.30268C39.1224 0.651875 39.392 0.475987 39.8707 0Z" fill="#EC9913"/>
<path id="Vector_53" d="M176.076 19.8466C177.056 19.8863 177.248 19.9587 177.694 20.8454C177.749 23.1291 169.339 24.6724 167.126 25.2808C167.046 25.2902 166.964 25.2995 166.882 25.3088C166.456 25.2874 166.066 25.0696 165.823 24.7193C165.458 24.1952 165.547 24.1294 165.618 23.6287C166.748 21.9776 173.707 20.4744 176.076 19.8466Z" fill="#EC9913"/>
<path id="Vector_54" d="M29.4539 19.7655C31.9611 19.9692 37.9156 21.9804 40.3822 23.0317C41.3366 23.4383 40.4588 24.8066 39.801 25.3708C38.0045 25.1701 31.0905 23.109 29.1486 22.1802C28.7598 21.9941 28.6721 21.5643 28.5917 21.1632C28.7518 20.4311 28.9187 20.342 29.4539 19.7655Z" fill="#EC9913"/>
<path id="Vector_55" d="M26.5219 104.409C27.3511 104.213 28.2214 104.484 28.7927 105.116C29.3639 105.748 29.5453 106.642 29.2661 107.447C28.9866 108.252 28.2909 108.841 27.4509 108.983C26.2086 109.194 25.023 108.381 24.7723 107.146C24.5215 105.911 25.2958 104.7 26.5219 104.409Z" fill="#EC9913"/>
<path id="Vector_56" d="M184.949 48.8235C186.169 48.5537 187.383 49.3084 187.682 50.5232C187.98 51.7381 187.255 52.9689 186.046 53.2956C185.239 53.5139 184.378 53.2779 183.796 52.6793C183.211 52.0806 182.999 51.2131 183.238 50.4124C183.478 49.6117 184.133 49.0037 184.949 48.8235Z" fill="#EC9913"/>
<path id="Vector_57" d="M11.9329 51.4836C12.6343 51.175 13.4478 51.2708 14.0582 51.7342C14.6687 52.1975 14.9798 52.9554 14.8711 53.7139C14.7626 54.4725 14.2512 55.1126 13.5353 55.3858C12.4657 55.7942 11.2659 55.2751 10.831 54.2162C10.396 53.1573 10.885 51.9448 11.9329 51.4836Z" fill="#EC9913"/>
<path id="Vector_58" d="M178.752 109.58C179.877 109.27 181.039 109.935 181.342 111.061C181.646 112.188 180.974 113.346 179.846 113.644C178.727 113.939 177.58 113.274 177.278 112.157C176.977 111.039 177.635 109.888 178.752 109.58Z" fill="#EC9913"/>
</g>
<defs>
<linearGradient id="paint0_linear_0_4" x1="75.7013" y1="86.4821" x2="70.3354" y2="88.7184" gradientUnits="userSpaceOnUse">
<stop stop-color="#5E9223"/>
<stop offset="1" stop-color="#79AC2B"/>
</linearGradient>
</defs>
</svg>
